<svg width="114" height="20" viewBox="0 0 114 20" fill="none" xmlns="http://www.w3.org/2000/svg">
<g clip-path="url(#clip0_430_75)">
<path d="M111.91 11.4198L101.15 11.4598V14.8298L113.73 14.9098L112.34 18.9498H95.6303L95.6104 0.0297656L113.55 0.00976562L112.41 4.15977L101.15 4.17977V7.71977L112.92 7.76977L111.91 11.4198Z" fill="white"/>
<path d="M23.02 18.9395H16.39L11.58 12.8095L6.45 18.9395H0L7.85 9.24953L0.37 0.0195312H6.59L11.66 5.86953L16.53 0.0195312H22.88L15.58 9.21953L23.02 18.9395Z" fill="white"/>
<path d="M67.3803 18.94L61.2303 5.43L54.6603 18.94H48.7803L57.7603 0L64.4803 0.02L73.6003 18.94H67.3803Z" fill="white"/>
<path d="M33.2702 18.96L25.4902 18.89L25.5902 0.0400391L33.2702 18.96Z" fill="#E53935"/>
<path d="M47.1202 18.92L39.4902 18.9L46.9602 0.0400391L47.1202 18.92Z" fill="#E53935"/>
<path d="M40.9102 0L36.4802 11.66L31.6602 0H40.9102Z" fill="#E53935"/>
<path d="M64.6497 18.92H57.6396L61.2197 10.96L64.6497 18.92Z" fill="#E53935"/>
<path d="M93.7802 4.53953C93.5802 2.00953 91.8702 0.139531 89.2602 0.0195312L74.5002 0.0395312L74.4102 19.1095L79.8902 17.8395L80.0201 14.2495L89.3801 14.2795C92.0501 14.1095 93.7001 12.2695 93.7402 9.75953C93.9102 8.03953 93.9102 6.26953 93.7802 4.53953ZM87.7302 9.64953L79.9602 9.70953L79.9202 4.47953L87.3401 4.54953C88.8001 5.81953 88.8302 7.97953 87.7302 9.64953Z" fill="white"/>
</g>
<defs>
<clipPath id="clip0_430_75">
<rect width="113.73" height="19.12" fill="white"/>
</clipPath>
</defs>
</svg>
